<svg width="159" height="28" viewBox="0 0 159 28" fill="none" xmlns="http://www.w3.org/2000/svg">
<path d="M14.7793 22H11.3989V8.37744H4.85156V22H1.48242V5.64844H14.7793V22ZM17.0254 15.812C17.0254 14.6066 17.2575 13.5322 17.7217 12.5889C18.1859 11.6455 18.8522 10.9155 19.7207 10.3989C20.5967 9.88232 21.6112 9.62402 22.7642 9.62402C24.4038 9.62402 25.7402 10.1257 26.7734 11.1289C27.8141 12.1322 28.3944 13.4948 28.5142 15.2168L28.5366 16.0479C28.5366 17.9121 28.0163 19.4095 26.9756 20.54C25.9349 21.6631 24.5386 22.2246 22.7866 22.2246C21.0347 22.2246 19.6346 21.6631 18.5864 20.54C17.5457 19.417 17.0254 17.8896 17.0254 15.958V15.812ZM20.271 16.0479C20.271 17.2008 20.4881 18.0843 20.9224 18.6982C21.3566 19.3047 21.978 19.6079 22.7866 19.6079C23.5728 19.6079 24.1867 19.3084 24.6284 18.7095C25.0701 18.103 25.291 17.1372 25.291 15.812C25.291 14.6815 25.0701 13.8055 24.6284 13.1841C24.1867 12.5627 23.5653 12.252 22.7642 12.252C21.9705 12.252 21.3566 12.5627 20.9224 13.1841C20.4881 13.798 20.271 14.7526 20.271 16.0479ZM29.8955 19.3833C30.6292 18.6047 31.1271 17.8335 31.3892 17.0698C31.6512 16.3062 31.7972 15.2243 31.8271 13.8242L31.917 9.84863H40.8564V19.3833H42.6084V25.6499H39.3628V22H32.1641V25.6499H28.8511V19.3833H29.8955ZM33.7251 19.3833H37.6221V12.5327H35.0952L35.0728 13.9927C35.0054 16.2238 34.5562 18.0207 33.7251 19.3833ZM54.9956 16.0366C54.9956 17.9084 54.5688 19.4095 53.7153 20.54C52.8693 21.6631 51.7238 22.2246 50.2788 22.2246C49.0509 22.2246 48.0589 21.7979 47.3027 20.9443V26.6719H44.0571V9.84863H47.0669L47.1792 11.0391C47.9653 10.0957 48.991 9.62402 50.2563 9.62402C51.7537 9.62402 52.918 10.1781 53.749 11.2861C54.5801 12.3942 54.9956 13.9215 54.9956 15.8682V16.0366ZM51.75 15.8008C51.75 14.6702 51.5479 13.798 51.1436 13.1841C50.7467 12.5701 50.1665 12.2632 49.4028 12.2632C48.3846 12.2632 47.6846 12.6525 47.3027 13.4312V18.4062C47.6995 19.2074 48.4071 19.6079 49.4253 19.6079C50.9751 19.6079 51.75 18.3389 51.75 15.8008ZM56.5117 15.812C56.5117 14.6066 56.7438 13.5322 57.208 12.5889C57.6722 11.6455 58.3385 10.9155 59.207 10.3989C60.083 9.88232 61.0975 9.62402 62.2505 9.62402C63.8901 9.62402 65.2266 10.1257 66.2598 11.1289C67.3005 12.1322 67.8807 13.4948 68.0005 15.2168L68.0229 16.0479C68.0229 17.9121 67.5026 19.4095 66.4619 20.54C65.4212 21.6631 64.0249 22.2246 62.2729 22.2246C60.521 22.2246 59.1209 21.6631 58.0728 20.54C57.0321 19.417 56.5117 17.8896 56.5117 15.958V15.812ZM59.7573 16.0479C59.7573 17.2008 59.9744 18.0843 60.4087 18.6982C60.8429 19.3047 61.4644 19.6079 62.2729 19.6079C63.0591 19.6079 63.673 19.3084 64.1147 18.7095C64.5565 18.103 64.7773 17.1372 64.7773 15.812C64.7773 14.6815 64.5565 13.8055 64.1147 13.1841C63.673 12.5627 63.0516 12.252 62.2505 12.252C61.4569 12.252 60.8429 12.5627 60.4087 13.1841C59.9744 13.798 59.7573 14.7526 59.7573 16.0479ZM76.0527 10.5225C77.61 10.5225 78.8529 11.0391 79.7812 12.0723C80.7096 13.1055 81.1738 14.5093 81.1738 16.2837V16.4409C81.1738 18.1929 80.6572 19.5967 79.624 20.6523C78.5908 21.708 77.202 22.2358 75.4575 22.2358C73.7056 22.2358 72.3092 21.6668 71.2686 20.5288C70.2354 19.3833 69.7188 17.8298 69.7188 15.8682V15.3291C69.7337 12.5964 70.1942 10.4588 71.1001 8.9165C72.0135 7.3667 73.3836 6.38965 75.2104 5.98535C76.1688 5.77572 76.7865 5.56982 77.0635 5.36768C77.3405 5.15804 77.479 4.86979 77.479 4.50293H80.1069C80.1069 5.67839 79.7887 6.56185 79.1523 7.15332C78.5234 7.74479 77.4004 8.2015 75.7832 8.52344C74.8249 8.7181 74.0687 9.09619 73.5146 9.65771C72.9606 10.2192 72.5863 11.0091 72.3916 12.0273C73.4248 11.0241 74.6452 10.5225 76.0527 10.5225ZM75.4351 13.1504C74.6639 13.1504 74.0575 13.4087 73.6157 13.9253C73.1815 14.4419 72.9644 15.2804 72.9644 16.4409C72.9644 17.4741 73.1777 18.264 73.6045 18.8105C74.0312 19.3496 74.6489 19.6191 75.4575 19.6191C76.2437 19.6191 76.8501 19.3534 77.2769 18.8218C77.7036 18.2902 77.9207 17.5078 77.9282 16.4746V16.2051C77.9282 15.2093 77.7074 14.4531 77.2656 13.9365C76.8314 13.4124 76.2212 13.1504 75.4351 13.1504ZM93.4487 22H90.1919V17.3281H86.1602V22H82.9146V9.84863H86.1602V14.7227H90.1919V9.84863H93.4487V22ZM101.557 22.2246C99.7752 22.2246 98.3228 21.6781 97.1997 20.585C96.0841 19.4919 95.5264 18.0356 95.5264 16.2163V15.9019C95.5264 14.6815 95.7622 13.5921 96.2339 12.6338C96.7056 11.668 97.3719 10.9268 98.2329 10.4102C99.1014 9.88607 100.09 9.62402 101.198 9.62402C102.86 9.62402 104.166 10.1481 105.117 11.1963C106.076 12.2445 106.555 13.7306 106.555 15.6548V16.98H98.8169C98.9217 17.7736 99.2362 18.41 99.7603 18.8892C100.292 19.3683 100.962 19.6079 101.771 19.6079C103.021 19.6079 103.998 19.1549 104.702 18.249L106.296 20.0347C105.81 20.7235 105.151 21.2625 104.32 21.6519C103.489 22.0337 102.568 22.2246 101.557 22.2246ZM101.187 12.252C100.543 12.252 100.019 12.4691 99.6143 12.9033C99.2174 13.3376 98.9629 13.959 98.8506 14.7676H103.365V14.5093C103.35 13.7905 103.156 13.2365 102.781 12.8472C102.407 12.4504 101.875 12.252 101.187 12.252ZM114 22.2246C112.219 22.2246 110.766 21.6781 109.643 20.585C108.528 19.4919 107.97 18.0356 107.97 16.2163V15.9019C107.97 14.6815 108.206 13.5921 108.677 12.6338C109.149 11.668 109.815 10.9268 110.676 10.4102C111.545 9.88607 112.533 9.62402 113.641 9.62402C115.303 9.62402 116.61 10.1481 117.561 11.1963C118.519 12.2445 118.998 13.7306 118.998 15.6548V16.98H111.26C111.365 17.7736 111.68 18.41 112.204 18.8892C112.735 19.3683 113.405 19.6079 114.214 19.6079C115.464 19.6079 116.441 19.1549 117.145 18.249L118.74 20.0347C118.253 20.7235 117.594 21.2625 116.763 21.6519C115.932 22.0337 115.011 22.2246 114 22.2246ZM113.63 12.252C112.986 12.252 112.462 12.4691 112.058 12.9033C111.661 13.3376 111.406 13.959 111.294 14.7676H115.809V14.5093C115.794 13.7905 115.599 13.2365 115.225 12.8472C114.85 12.4504 114.319 12.252 113.63 12.252Z" fill="white"/>
<path d="M157.7 13.2833L151.154 6.79682C150.754 6.40106 150.106 6.40106 149.707 6.79682C149.307 7.19266 149.307 7.83433 149.707 8.23017L154.507 12.9865H137.023C136.458 12.9865 136 13.4403 136 14C136 14.5596 136.458 15.0135 137.023 15.0135H154.507L149.707 19.7698C149.307 20.1656 149.307 20.8073 149.707 21.2032C149.907 21.4009 150.169 21.5 150.43 21.5C150.692 21.5 150.954 21.4009 151.154 21.2032L157.7 14.7167C158.1 14.3208 158.1 13.6792 157.7 13.2833Z" fill="white"/>
</svg>
